<svg id="Layer_1" data-name="Layer 1" xmlns="http://www.w3.org/2000/svg" viewBox="0 0 1498.57 497.69"><defs><style>.cls-1{fill:#fff;}</style></defs><title>Artboard 11</title><path class="cls-1" d="M404.63,226.87c-1.27-1.36-2.57-10.23-.87-12.37a5.51,5.51,0,0,1,3.83-1.65c24.66-.09,49.32,0,74-.07,3.19,0,4.72,1.56,4.33,4.65-.43,3.43,2.81,7.75-1.58,9.43.6,3.49,1.54,6.42,1.54,9.36.09,47.66,0,95.31.18,143,0,4.44-1.75,6.57-5.41,8.42C456.55,399.76,431,407.3,404.7,412.88c-32.25,6.85-64.92,7.64-97.42,5.51-47.73-3.12-90-20.69-123.95-55.28-22.38-22.82-37.15-50.24-44.57-81.38a221.75,221.75,0,0,1-.24-103.38c5.27-22.4,14.06-43.34,27.66-62.07,25.43-35,59.23-57.81,100.86-69.07a210.82,210.82,0,0,1,56.59-7.64c21.16.14,42.25.18,63.2,3.81C419,49,448.69,59.94,473.66,81.75c6.12,5.35,6.09,6.14.44,12.2-16.7,17.91-33.28,35.92-50,53.85-4,4.28-5.31,4.28-9.43.42-19.44-18.2-42.33-28-69-30.08-25.74-2-50.08,1.57-72.65,14.63-26.14,15.13-40.69,38.6-47.84,67.17a120.74,120.74,0,0,0-2.52,45.94c5.93,43,31.13,80.19,78.85,91.81,31.56,7.68,61.95,3.44,91.69-8.33,12.12-4.8,10-2.83,10-14.92.08-26-.07-52,0-78C403.24,233.48,404.07,230.52,404.63,226.87Z"/><path class="cls-1" d="M1071.29,231.2q0-88.48-.09-177c0-4.76,1.7-5.93,6.15-5.92q113,.15,226,0c6,0,11.94-.28,17.91-.55,3.21-.14,4.48,1.24,4.47,4.42q-.08,34.76,0,69.5c0,3.72-1.7,5.06-5.22,4.87-6.31-.35-12.62-.82-18.94-.83-46-.07-92,0-138-.12-4.71,0-6.46,1.19-6.38,6.18q.4,26.23,0,52.49c-.07,4.78,1.68,5.86,6.14,5.85,48.66-.14,97.32-.09,146-.1,6.63,0,6.63,0,6.62,6.58,0,21.67-.08,43.33.08,65,0,4.25-1.15,5.85-5.67,5.84-49.16-.14-98.32,0-147.48-.2-4.53,0-5.7,1.5-5.66,5.77.18,19.17.23,38.33,0,57.5,0,4.68,1.45,6,6,5.93,46-.14,92-.09,138-.09,6.53,0,13,.15,19.57-.05,3.47-.1,4.8,1.24,4.79,4.65q-.06,34.74,0,69.49c0,3-1.28,4.25-4.22,4.11-6.49-.31-13-.8-19.46-.81q-112.49,0-225,.1c-4.29,0-5.8-1.18-5.79-5.68q.19-88.49.09-177Z"/><path class="cls-1" d="M543.26,119.55c3.93-2.2,7-4,10.23-5.71q42.57-22.05,85.17-44.07Q705.59,35,772.4,0c3.9-2,6.62-1.79,10.43.24,24.24,12.94,48.67,25.51,73,38.24q53.32,27.87,106.62,55.81,24.33,12.75,48.63,25.56c1.48.79,2.63,2.21,3.93,3.34a22.42,22.42,0,0,1-3.67,3q-50.54,26.25-101.12,52.39-61.59,32-123.08,64.23a13.2,13.2,0,0,1-13.22,0L573.73,136.06c-8.09-4.31-16.19-8.59-24.27-12.91C547.61,122.16,545.83,121.05,543.26,119.55Zm135-29a22.75,22.75,0,0,0,2.66,2.17q14.8,7.82,29.63,15.55c17.73,9.22,35.51,18.35,53.22,27.62,31.56,16.52,63.06,33.16,94.69,49.57a8.12,8.12,0,0,0,6.36-.09c10.62-5.17,21.09-10.66,31.57-16.12,2.85-1.48,5.56-3.22,8.66-5a14,14,0,0,0-2-1.79q-43.77-23-87.55-45.93-45.15-23.61-90.42-47a8,8,0,0,0-6.24,0c-9.14,4.42-18.1,9.22-27.11,13.91C687.52,85.63,683.31,87.88,678.27,90.54ZM654,78.48c4.64,2.49,7.71,4.47,11,5.79a8,8,0,0,0,5.79.15c11.43-5.74,22.72-11.74,34-17.75a65.51,65.51,0,0,0,5.89-4c-2.14-1.41-4.33-2.73-6.39-4.25-4.29-3.17-8-2.51-12.56.24-7.94,4.79-16.42,8.69-24.67,13C663.15,73.68,659.25,75.72,654,78.48Z"/><path class="cls-1" d="M782.77,492.8c0-13.1,0-26.2,0-39.29q.27-70.69.58-141.4c.08-18.65.26-37.31.08-56,0-3.94,1.33-6.14,4.64-7.84q45.1-23.13,90.15-46.39Q933,173.57,987.69,145.08c9.55-5,19.12-9.89,29.34-15.16a44.8,44.8,0,0,1,.52,4.45q0,116.43,0,232.88c0,4.88-1.54,7.28-5.85,9.49-40.57,20.84-81,41.95-121.48,62.94q-49.44,25.62-98.93,51.15c-2.15,1.1-4.46,1.89-6.69,2.83Zm94.93-63.09c2.09-.88,3.46-1.35,4.72-2,11.64-6.11,23.19-12.42,35-18.29,3.9-1.95,5-4.41,5-8.59-.1-55.16,0-110.32-.13-165.48,0-4.57,1.51-6.71,5.45-8.68,18.89-9.49,37.58-19.39,56.44-29,3.93-2,5.59-4.46,5.36-9-.38-7.48-.08-15-.11-22.49,0-1.58-.22-3.15-.38-5.29-1.67.68-2.71,1-3.68,1.53-8.43,4.35-16.84,8.75-25.27,13.12-46.73,24.19-93.42,48.47-140.24,72.46-5.68,2.91-8.71,6.08-8.08,12.88.62,6.6,0,13.31,0,20,0,1.58.26,3.17.48,5.66l65.52-33.84Z"/><path class="cls-1" d="M777.62,497.69c-2.42-1.08-4.06-1.71-5.6-2.52q-81.27-43-162.51-86c-21-11.14-42.1-22.26-63-33.63a7.74,7.74,0,0,1-3.35-5.71q-.21-119.49,0-239a21.57,21.57,0,0,1,.71-3.46c6.23,3.19,12.11,6.11,17.9,9.2,23.37,12.45,46.68,25,70.06,37.43q70,37.19,140,74.19c4.68,2.47,6.46,5.39,6.44,10.87q-.36,116.25-.24,232.49C778,493.3,777.78,495,777.62,497.69ZM572.35,158.09c0,3.22,0,5,0,6.74,0,35.16.24,70.31.1,105.47-.1,25.63-.72,51.25-1,76.87-.06,7,.8,14,.57,20.92-.11,3.68,1.21,5.34,4.24,6.88,8.32,4.22,16.45,8.79,24.69,13.14,4.64,2.45,9.36,4.74,15.22,7.69V257.33l1.56-.51a27.1,27.1,0,0,1,2.56,3.66c1.91,3.88,3.65,7.85,5.47,11.77q20.71,44.61,41.44,89.2c11.91,25.67,23.72,51.39,35.83,76.95a18.41,18.41,0,0,0,6.86,7.44c7.7,4.61,15.79,8.57,23.72,12.81,4.92,2.63,9.82,5.29,15.32,8.26a39.37,39.37,0,0,0,.6-4.58q.1-102.75,0-205.48a8.54,8.54,0,0,0-3.68-6.15c-9-5.28-18.4-10.06-27.64-15l-12.63-6.84V369l-1.52.25c-1.12-2.15-2.34-4.26-3.36-6.46q-20.09-43.26-40.13-86.55c-11.86-25.51-24.39-50.73-35.46-76.58-5.17-12.07-11.44-21.45-24.08-26.55C591.61,169.26,582.84,163.65,572.35,158.09Z"/><path class="cls-1" d="M0,242.76q0-81-.06-161.92c0-3.62,1.07-5.18,4.8-5.17,25.32.06,50.64.1,76,0,4.74,0,4.84,2.67,4.84,6.17q-.08,139.94,0,279.86c0,14.16-.14,28.32.1,42.48.08,4.8-1.52,6.32-6.36,6.28-24.49-.22-49-.18-73.47,0-4.26,0-5.83-1.24-5.82-5.72q.18-81,.08-161.91Z"/><path class="cls-1" d="M1439.27,401.49c-13.07,15.21-33.62,19.65-52.28,10.39-12.58-6.25-15.41-15.37-14.37-30.13.85-12,7.52-19.36,19-22.73s23.09-4.14,34.16.5c5.39,2.25,9.79,6.86,15.14,10.77,3.49-5,9-9.66,16.42-10.47,13.14-1.45,26.86-3,36.08,9.53,9.41,12.85,6.47,37.75-14.18,42.83-8.75,2.15-17.73,2.44-26-1C1448.25,409.06,1444.12,404.93,1439.27,401.49Zm-30.85-7.18c0,.23.07.46.11.69,6.16-1.32,12.33-2.58,18.47-4,2.42-.56,4.76-1.14,4.78-4.66s-1.41-5.63-4.68-6.71c-11.24-3.7-22.51-3.39-33.8-.27-4,1.1-6.79,3.54-6.47,7.73.36,4.61,4.1,6.15,8.2,6.49C1399.49,394,1404,394.08,1408.42,394.31Zm57.11.67c4.34-.8,8.79-1.31,13-2.52,3.17-.91,5.89-3.34,5-7-.53-2.18-2.44-5-4.39-5.69a37.9,37.9,0,0,0-27.12.29c-2.14.84-4.67,4-4.64,6.13s2.72,5,4.9,5.82C1456.38,393.65,1460.93,394,1465.53,395Z"/><path class="cls-1" d="M1433.41,210.4c-12,0-24,.13-35.94,0-10.39-.15-18.53-4.7-22.54-14.38s-3.13-19.34,4.3-27.44c5.08-5.52,11.81-8,19.19-8.05,23.79-.12,47.59-.14,71.38.07a25.23,25.23,0,0,1,21.89,38.11c-4.72,8.21-12.67,11.52-21.84,11.67C1457.71,210.55,1445.56,210.4,1433.41,210.4Zm.87-16.14c12,0,24,.06,35.94,0,4.6,0,7.21-3,7.28-7.63.07-5.75-1.79-8.2-6.9-8.22q-35.94-.12-71.88,0c-5.57,0-7.66,2.49-7.57,8.07.1,6,1.77,7.79,7.69,7.81C1410.65,194.29,1422.47,194.26,1434.28,194.26Z"/><path class="cls-1" d="M1391.87,76.44c0,8,0,14.73,0,21.47s0,6.61-6.45,6.61c-11.9,0-11.9,0-11.9-12.12V55.79c7.84.37,15.27-1.85,22.67,2,17.59,9.08,35.43,17.7,53,26.78,7,3.58,14.12,3.46,21.44,2.66a6.81,6.81,0,0,0,6.47-6.56c.22-3.85-2-6.59-5.85-7.7a17.89,17.89,0,0,0-4-.52c-8.13-.4-8.13-.38-8.13-8.35a30.36,30.36,0,0,1,0-5.48,4.06,4.06,0,0,1,2-2.83c12.86-4,29.14,4.87,32.86,17.77,4.31,14.93-4.38,28.52-20.23,30.41-13.11,1.56-25.91,1.31-38.21-5.75C1422,90.34,1407.43,84.07,1391.87,76.44Z"/><path class="cls-1" d="M1473.22,283.72l-10.71-14.38c.12-.54.24-1.08.37-1.63,2.6,0,5.27.42,7.78-.07,8.81-1.71,13.51,3,18.84,9.33,6.18,7.3,3.81,15,4.16,22.73,0,.64-3,2-4.54,2-19.64.17-39.28.16-58.93.17q-25.21,0-50.44-.06c-2,0-3.91-.19-6.33-.31,0-5.22-.24-10,.19-14.79.1-1.12,2.47-2.9,3.8-2.91,26.47-.17,52.94-.12,79.41-.12Z"/><path class="cls-1" d="M42.86,23c12.66,0,25.33.12,38-.08,3.81-.05,5.52.94,5.27,5-.28,4.65-.13,9.33-.05,14,.05,2.84-.9,4.28-4,4.27q-39.26-.1-78.49,0c-3.33,0-4.36-1.4-4.23-4.56a119,119,0,0,0,0-13.49C-1,24.21.43,22.91,4.36,23,17.19,23.14,30,23,42.86,23Z"/></svg>