<?xml version="1.0" encoding="iso-8859-1"?>
<!-- Generator: Adobe Illustrator 22.1.0, SVG Export Plug-In . SVG Version: 6.00 Build 0)  -->
<svg version="1.1" id="Layer_1" xmlns="http://www.w3.org/2000/svg" xmlns:xlink="http://www.w3.org/1999/xlink" x="0px" y="0px"
	 viewBox="0 0 1131.906 319.774" style="enable-background:new 0 0 1131.906 319.774;" xml:space="preserve">
<g>
	<path style="fill:#FFFFFF;" d="M377.202,224.219c-8.249,0-15.869,0.022-23.489-0.009c-4.332-0.017-8.663-0.108-12.995-0.189
		c-3.066-0.058-5.352,1.147-5.712,4.342c-1.736,15.382-4.061,30.768-1.11,46.26c3.695,19.403,16.731,27.608,35.846,22.546
		c13.963-3.697,25.074-12.114,35.428-21.701c24.593-22.772,43.354-50.016,60.247-78.692c1.435-2.436,2.469-5.749,6.841-4.292
		c-0.252,0.917-0.316,1.754-0.69,2.417c-17.727,31.426-36.763,61.923-63.128,87.07c-13.44,12.819-27.774,24.447-45.144,31.691
		c-9.773,4.075-19.791,6.949-30.57,5.891c-12.664-1.243-21.731-7.801-27.623-18.861c-5.856-10.993-7.565-23.037-8.139-35.24
		c-0.988-21.022,2.894-41.446,8.173-61.659c3.547-13.582,1.161-11.966,15.186-11.919c2.775,0.009,5.551,0.001,9.16,0.001
		c-4.638-24.243-9.11-47.618-13.874-72.523c-1.731,3.118-2.714,4.789-3.603,6.507c-15.924,30.763-31.901,61.499-47.679,92.337
		c-2.156,4.214-4.68,6.119-9.626,6.086c-33.159-0.219-66.32-0.135-99.48-0.18c-1.939-0.003-3.878-0.269-6.388-0.455
		c1.839-12.183,3.541-23.838,5.365-35.474c5.517-35.193,11.098-70.377,16.614-105.57c1.269-8.1,2.08-8.937,10.122-8.983
		c8.665-0.05,17.33-0.036,25.995-0.013c1.436,0.004,2.871,0.199,4.74,0.338c-6.137,38.988-12.205,77.542-18.393,116.856
		c6.385,0,12.003-0.004,17.621,0.001c6.665,0.005,13.343-0.234,19.99,0.112c4.847,0.252,7.631-1.688,9.889-5.864
		c18.774-34.724,37.817-69.302,56.47-104.09c3.012-5.616,6.493-7.948,12.94-7.575c9.631,0.557,19.321,0.256,28.981,0.058
		c4.096-0.084,6.011,1.466,6.722,5.527c1.201,6.862,2.853,13.645,4.586,21.725c2.163-2.971,3.82-5.065,5.284-7.287
		c14.625-22.19,30.621-43.247,50.544-61.041c12.103-10.809,24.751-21.037,40.153-26.645c8.021-2.921,16.654-4.94,25.149-5.607
		c13.96-1.095,24.306,5.783,31.038,17.878c6.466,11.618,8.808,24.343,9.178,37.483c0.159,5.64,0.027,11.289,0.027,17.766
		c23.642,0,46.983,0,70.965,0c-1.709,10.235-3.012,19.612-5.045,28.827c-0.385,1.745-3.583,3.908-5.621,4.063
		c-6.959,0.529-13.988,0.465-20.974,0.198c-4.495-0.172-6.629,1.31-7.349,5.938c-5.556,35.691-11.264,71.359-17.094,107.007
		c-0.267,1.63-2.122,4.257-3.295,4.289c-11.793,0.321-23.598,0.195-36.322,0.195c6.136-39.207,12.186-77.865,18.345-117.222
		c-11.491,0-22.237,0-33.765,0c0.96-6.691,1.889-12.689,2.671-18.707c1.872-14.393,3.401-28.779,0.575-43.258
		c-3.88-19.879-17.367-28.074-36.736-22.158c-14.078,4.3-25.391,13.008-36.056,22.713c-18.754,17.067-34.395,36.695-47.164,58.548
		c-1.639,2.806-2.072,7.108-1.383,10.361c7.387,34.837,15.117,69.6,22.732,104.389C376.675,219.995,376.816,221.61,377.202,224.219z
		"/>
	<path style="fill:#FFFFFF;" d="M140.803,223.612c-2.827,0.217-4.734,0.481-6.641,0.49c-12.332,0.057-24.668-0.092-36.996,0.153
		c-4.893,0.097-8.049-1.636-10.602-5.844c-10.801-17.806-21.841-35.468-32.807-53.174c-1.036-1.673-2.16-3.29-3.71-5.642
		c-0.553,1.806-0.983,2.79-1.149,3.816c-2.969,18.408-5.978,36.81-8.791,55.242c-0.591,3.872-2.28,5.441-6.222,5.387
		c-11.118-0.154-22.239-0.054-33.884-0.054c2.152-13.913,4.159-27.207,6.271-40.484c5.492-34.528,11.103-69.037,16.464-103.584
		c0.725-4.671,2.465-6.665,7.357-6.499c9.323,0.316,18.663,0.134,27.995,0.196c1.441,0.01,2.88,0.218,4.724,0.367
		c-3.172,20.289-6.285,40.199-9.397,60.109c0.412,0.175,0.825,0.349,1.237,0.524c1.615-1.783,3.214-3.581,4.846-5.348
		c15.605-16.893,31.277-33.726,46.775-50.718c3.162-3.466,6.523-5.07,11.303-4.967c12.159,0.262,24.328,0.035,36.493,0.028
		c1.11-0.001,2.22,0.17,4.056,0.321c-1.249,1.437-2.004,2.423-2.877,3.29c-21.286,21.137-42.541,42.305-63.936,63.33
		c-2.634,2.589-2.913,4.346-0.784,7.498c15.762,23.336,31.314,46.813,46.923,70.251C138.43,219.772,139.34,221.291,140.803,223.612z
		"/>
	<path style="fill:#FFFFFF;" d="M976.945,116.5c7.315,1.462,14.848,2.244,21.905,4.509c24.695,7.925,36.333,29.28,30.433,54.595
		c-6.518,27.966-26.695,45.363-58.933,50.566c-10.794,1.742-21.636,1.023-32.183-2.112c-24.519-7.288-37.042-28.483-31.689-53.467
		c6.549-30.565,28.646-49.285,62.313-52.757c2.65-0.273,5.317-0.376,7.976-0.557C976.826,117.017,976.886,116.759,976.945,116.5z
		 M964.238,195.667c18.455,0.274,32.458-18.587,26.126-35.9c-1.259-3.444-4.851-6.997-8.254-8.524
		c-12.883-5.781-27.891-0.245-34.801,12.072C938.256,179.451,946.604,195.405,964.238,195.667z"/>
	<path style="fill:#FFFFFF;" d="M662.633,191.812c-2.425,7.22-5.878,12.559-10.619,17.083c-14.678,14.007-32.45,19.049-52.32,17.865
		c-10.662-0.635-20.705-3.228-29.616-9.434c-9.94-6.923-15.42-16.428-16.31-28.451c-4.082-55.126,45.618-80.284,85.493-68.724
		c17.444,5.057,28.164,19.101,28.561,37.264c0.148,6.781,0.024,13.567,0.024,20.935c-2.561,0-4.512,0-6.463,0
		c-22,0-44.001,0.101-65.999-0.088c-4.189-0.036-5.522,1.438-5.648,5.424c-0.412,13.07,11.862,21.084,25.33,16.35
		c1.251-0.44,2.622-0.872,3.597-1.706c7.86-6.723,17.209-6.99,26.823-6.562C650.899,192.009,656.33,191.812,662.633,191.812z
		 M635.271,156.87c-0.221-9.909-6.175-15.19-17.209-15.781c-11.48-0.615-21.751,6.352-22.879,15.781
		C608.449,156.87,621.682,156.87,635.271,156.87z"/>
	<path style="fill:#FFFFFF;" d="M676.314,223.938c1.664-10.831,3.158-20.833,4.744-30.821c3.551-22.356,7.104-44.713,10.825-67.041
		c0.256-1.54,1.865-4.051,2.901-4.08c10.941-0.299,21.893-0.185,33-0.185c0,3.96,0,7.34,0,11.448
		c1.809-1.533,3.161-2.653,4.487-3.804c14.273-12.389,30.512-14.05,47.767-8.141c9.894,3.388,15.583,12.09,15.101,23.498
		c-0.47,11.116-1.787,22.227-3.306,33.261c-2.064,14.993-4.674,29.911-7.107,45.228c-11.931,0-23.654,0-36.278,0
		c0.952-6.785,1.807-13.448,2.837-20.082c1.889-12.171,3.883-24.326,5.832-36.487c0.026-0.164,0.05-0.329,0.07-0.495
		c1.206-9.959-0.937-15.628-6.842-18.105c-7.505-3.148-18.255-0.63-22.759,6.595c-3.163,5.074-5.396,11.112-6.505,17.009
		c-2.892,15.368-5.07,30.876-7.236,46.369c-0.634,4.535-2.426,6.104-7.064,5.939C696.986,223.695,687.172,223.938,676.314,223.938z"
		/>
	<path style="fill:#FFFFFF;" d="M893.794,153.716c-1.608-0.926-2.758-1.549-3.869-2.236c-9.759-6.035-19.603-6.236-29.093,0.274
		c-9.75,6.688-15.075,15.982-13.828,28.078c1.268,12.298,13.622,19.959,26.924,16.802c4.472-1.061,8.751-2.936,13.965-4.729
		c-1.56,9.442-2.879,18.269-4.605,27.015c-0.28,1.419-2.152,3.06-3.653,3.62c-16.304,6.082-32.529,6.837-48.298-1.727
		c-17.41-9.455-23.761-24.637-22.476-43.798c2.513-37.465,41.687-66.614,78.234-58.117c1.135,0.264,2.269,0.544,3.382,0.887
		c7.587,2.342,8.437,3.766,7.098,11.519C896.307,138.638,895.096,145.982,893.794,153.716z"/>
	<path style="fill:#FFFFFF;" d="M1038.317,224.059c1.578-10.252,3.007-19.768,4.512-29.271c3.566-22.524,7.263-45.028,10.672-67.576
		c0.652-4.314,2.343-6.033,6.757-5.934c9.97,0.225,19.948,0.071,30.55,0.071c-0.525,4.717-0.99,8.89-1.585,14.243
		c13.181-9.371,25.382-18.941,42.683-14.532c-1.769,10.792-3.555,21.69-5.399,32.945c-3.39-0.659-6.286-1.302-9.21-1.778
		c-16.617-2.704-29.288,4.993-33.156,21.322c-3.371,14.23-5.565,28.742-8.145,43.154c-1.222,6.826-1.567,7.311-8.662,7.345
		C1057.889,224.093,1048.445,224.059,1038.317,224.059z"/>
</g>
</svg>
